<?xml version="1.0" encoding="UTF-8" standalone="no"?>
<svg
   xmlns:dc="http://purl.org/dc/elements/1.1/"
   xmlns:cc="http://creativecommons.org/ns#"
   xmlns:rdf="http://www.w3.org/1999/02/22-rdf-syntax-ns#"
   xmlns:svg="http://www.w3.org/2000/svg"
   xmlns="http://www.w3.org/2000/svg"
   xmlns:sodipodi="http://sodipodi.sourceforge.net/DTD/sodipodi-0.dtd"
   xmlns:inkscape="http://www.inkscape.org/namespaces/inkscape"
   sodipodi:docname="blm_obj.svg"
   inkscape:version="1.0 (4035a4f, 2020-05-01)"
   id="svg73"
   version="1.1"
   viewBox="0 0 300 184.31701"
   height="184.317mm"
   width="300mm">
  <defs
     id="defs67" />
  <sodipodi:namedview
     showguides="false"
     inkscape:window-maximized="0"
     inkscape:window-y="23"
     inkscape:window-x="0"
     inkscape:window-height="1035"
     inkscape:window-width="1252"
     showgrid="false"
     inkscape:document-rotation="0"
     inkscape:current-layer="text77"
     inkscape:document-units="mm"
     inkscape:cy="438.8486"
     inkscape:cx="480.87494"
     inkscape:zoom="0.98994949"
     inkscape:pageshadow="2"
     inkscape:pageopacity="0.0"
     borderopacity="1.0"
     bordercolor="#666666"
     pagecolor="#ffffff"
     id="base" />
  <metadata
     id="metadata70">
    <rdf:RDF>
      <cc:Work
         rdf:about="">
        <dc:format>image/svg+xml</dc:format>
        <dc:type
           rdf:resource="http://purl.org/dc/dcmitype/StillImage" />
        <dc:title></dc:title>
      </cc:Work>
    </rdf:RDF>
  </metadata>
  <g
     id="layer1"
     inkscape:groupmode="layer"
     inkscape:label="Layer 1">
    <g
       style="font-style:normal;font-weight:normal;font-size:71.113px;line-height:0.75;font-family:sans-serif;fill:#000000;fill-opacity:1;stroke:none;stroke-width:1.77782"
       id="text77"
       aria-label="BLACK
LIVES
MATTER">
      <path
         id="path119"
         style="font-style:normal;font-variant:normal;font-weight:900;font-stretch:normal;font-family:'Work Sans';-inkscape-font-specification:'Work Sans Heavy';stroke-width:2.2581"
         d="M 6.8664551e-6,60.516727 V 0.90314522 H 34.142331 q 11.290451,0.0903236 16.800191,4.06456248 5.509741,3.8839151 5.509741,11.8323923 0,5.329093 -3.25165,9.032362 -3.251651,3.703267 -10.206569,4.696827 v 0.09032 q 7.767831,0.812913 11.380775,4.606504 3.612945,3.793592 3.612945,9.574303 0,7.858154 -5.329093,11.832391 -5.23877,3.883916 -16.167926,3.883916 z M 20.142172,46.78754 h 10.74851 q 2.800031,0 4.154885,-1.083885 1.445178,-1.174206 1.445178,-3.341972 0,-2.077444 -1.445178,-3.161327 -1.354854,-1.083883 -4.154885,-1.083883 h -10.74851 z m 0,-22.761551 h 9.393655 q 5.419417,0 5.419417,-4.335533 0,-4.335534 -5.419417,-4.335534 h -9.393655 z" />
      <path
         id="path121"
         style="font-style:normal;font-variant:normal;font-weight:900;font-stretch:normal;font-family:'Work Sans';-inkscape-font-specification:'Work Sans Heavy';stroke-width:2.2581"
         d="M 84.554195,45.07139 H 111.56096 V 60.516727 H 63.508794 V 0.90314522 h 21.045401 z" />
      <path
         id="path161"
         d="M 127.86155,49.135952 V 36.03903 h 34.05199 v 13.096922 z"
         style="font-style:normal;font-variant:normal;font-weight:900;font-stretch:normal;font-family:'Work Sans';-inkscape-font-specification:'Work Sans Heavy';stroke-width:2.2581" />
      <path
         id="path123"
         d="M 112.77751,60.516727 132.10676,0.90314522 h 25.29062 L 176.81694,60.516727 H 155.31992 L 147.1908,26.28408 144.75207,16.167835 h -0.27098 l -2.34841,10.116245 -8.4001,34.232647 z"
         style="font-style:normal;font-variant:normal;font-weight:900;font-stretch:normal;font-family:'Work Sans';-inkscape-font-specification:'Work Sans Heavy';stroke-width:2.2581" />
      <path
         id="path125"
         style="font-style:normal;font-variant:normal;font-weight:900;font-stretch:normal;font-family:'Work Sans';-inkscape-font-specification:'Work Sans Heavy';stroke-width:2.2581"
         d="m 234.17807,42.271358 q -1.62582,6.954919 -5.60007,11.200128 -3.88391,4.245209 -9.48398,6.142005 -5.60007,1.806472 -12.46465,1.806472 -9.39366,0 -16.25825,-3.612945 -6.77428,-3.612942 -10.47753,-10.477537 -3.61295,-6.864594 -3.61295,-16.619544 0,-9.75495 3.61295,-16.619545 3.70325,-6.864594 10.47753,-10.4775385 6.86459,-3.612944366089 16.25825,-3.612944366089 6.59362,0 12.284,1.896795766089 5.69039,1.8064723 9.57431,5.7807109 3.97423,3.9742392 5.23878,10.3872152 l -18.06473,7.045241 q -0.72259,-5.871034 -2.98068,-7.587182 -2.16777,-1.71615 -5.50975,-1.71615 -3.07099,0 -5.23876,1.625826 -2.07744,1.535501 -3.16133,4.877475 -0.99357,3.251649 -0.99357,8.400096 0,5.058122 0.90325,8.400095 0.99356,3.341974 3.16133,4.967799 2.16777,1.535501 5.78071,1.535501 3.25166,0 5.3291,-1.896796 2.07743,-1.987119 2.61936,-6.232328 z" />
      <path
         id="path157"
         d="m 277.0578,19.058191 22.94221,41.458536 h -23.57447 l -14.81307,-29.80679 z"
         style="font-style:normal;font-variant:normal;font-weight:900;font-stretch:normal;font-family:'Work Sans';-inkscape-font-specification:'Work Sans Heavy';stroke-width:2.2581" />
      <path
         id="path155"
         d="M 260.43826,0.90314522 V 60.516727 h -21.0454 V 0.90314522 Z"
         style="font-style:normal;font-variant:normal;font-weight:900;font-stretch:normal;font-family:'Work Sans';-inkscape-font-specification:'Work Sans Heavy';stroke-width:2.2581" />
      <path
         id="path127"
         d="M 298.37418,0.90314522 269.10933,38.929386 268.20609,34.322881 255.10917,52.206956 250.2317,37.664855 275.97393,0.90314522 Z"
         style="font-style:normal;font-variant:normal;font-weight:900;font-stretch:normal;font-family:'Work Sans';-inkscape-font-specification:'Work Sans Heavy';stroke-width:2.2581" />
      <path
         id="path129"
         style="font-style:normal;font-variant:normal;font-weight:900;font-stretch:normal;font-family:'Work Sans';-inkscape-font-specification:'Work Sans Heavy';stroke-width:2.6165"
         d="m 24.385673,115.72029 h 31.293193 v 17.89678 H 6.8664551e-6 V 64.541792 H 24.385673 Z" />
      <path
         id="path131"
         style="font-style:normal;font-variant:normal;font-weight:900;font-stretch:normal;font-family:'Work Sans';-inkscape-font-specification:'Work Sans Heavy';stroke-width:2.6165"
         d="M 87.753734,64.541792 V 133.61707 H 63.368069 V 64.541792 Z" />
      <path
         id="path133"
         style="font-style:normal;font-variant:normal;font-weight:900;font-stretch:normal;font-family:'Work Sans';-inkscape-font-specification:'Work Sans Heavy';stroke-width:2.6165"
         d="M 167.92129,64.541792 144.58221,133.61707 H 115.59153 L 92.252457,64.541792 h 25.432263 l 9.52401,37.782088 3.34911,13.50107 3.13978,-13.29175 9.73334,-37.991408 z" />
      <path
         id="path135"
         style="font-style:normal;font-variant:normal;font-weight:900;font-stretch:normal;font-family:'Work Sans';-inkscape-font-specification:'Work Sans Heavy';stroke-width:2.6165"
         d="M 172.32026,133.61707 V 64.541792 h 57.35341 v 17.896777 h -32.96774 v 8.58208 h 26.58351 v 16.536201 h -26.58351 v 8.16344 h 34.22366 v 17.89678 z" />
      <path
         id="path137"
         style="font-style:normal;font-variant:normal;font-weight:900;font-stretch:normal;font-family:'Work Sans';-inkscape-font-specification:'Work Sans Heavy';stroke-width:2.6165"
         d="m 268.18346,63.495197 q 9.94266,0 17.79212,2.511828 7.95412,2.407169 14.02437,7.326166 l -9.83799,15.698927 q -4.919,-3.453764 -10.36128,-5.546954 -5.33765,-2.09319 -11.61722,-2.09319 -2.72114,0 -4.39569,0.418638 -1.5699,0.418638 -2.30252,1.151254 -0.62796,0.732617 -0.62796,1.674552 0,1.255915 1.88388,1.883872 1.98852,0.627957 4.919,1.360573 l 9.52401,2.19785 q 10.57061,2.407169 15.90825,7.116847 5.44229,4.70968 5.44229,13.08244 0,8.37276 -4.08171,13.81505 -4.08173,5.33764 -11.09391,7.95412 -6.90753,2.6165 -15.69893,2.6165 -6.59355,0 -13.1871,-1.15127 -6.59355,-1.2559 -12.24516,-3.55841 -5.65161,-2.40717 -9.73334,-5.75628 l 9.62868,-16.0129 q 3.03512,2.40717 7.32617,4.3957 4.29103,1.88387 8.89605,3.03512 4.60501,1.15126 8.58208,1.15126 2.51183,0 3.97706,-0.41864 1.46523,-0.41864 1.98853,-1.04659 0.62796,-0.73262 0.62796,-1.67456 0,-1.46523 -1.25592,-2.19785 -1.15125,-0.73261 -4.29103,-1.46523 l -10.46595,-2.30251 q -5.54696,-1.25591 -10.57062,-3.3491 -5.02365,-2.09319 -8.16344,-6.070255 -3.13978,-4.081721 -3.13978,-10.989249 0,-7.116847 3.76774,-12.454482 3.8724,-5.337635 11.09391,-8.268101 7.32617,-3.035126 17.68745,-3.035126 z" />
      <path
         id="path139"
         style="font-style:normal;font-variant:normal;font-weight:900;font-stretch:normal;font-family:'Work Sans';-inkscape-font-specification:'Work Sans Heavy';stroke-width:1.77783"
         d="m 60.30379,137.38257 v 46.9345 H 45.867861 V 168.0322 l 0.213338,-15.78709 h -0.213338 l -9.102458,32.07196 H 23.538394 l -8.960232,-32.07196 h -0.284451 l 0.213338,15.78709 v 16.28487 H 6.8664551e-6 v -46.9345 H 23.18283 l 5.404583,20.83604 2.062276,8.7469 h 0.142229 l 2.062275,-8.7469 5.404584,-20.83604 z" />
      <path
         id="path175"
         d="m 74.971949,175.35683 v -10.31139 h 26.809581 v 10.31139 z"
         style="font-style:normal;font-variant:normal;font-weight:900;font-stretch:normal;font-family:'Work Sans';-inkscape-font-specification:'Work Sans Heavy';stroke-width:1.77783" />
      <path
         id="path141"
         d="m 63.096085,184.31707 15.218172,-46.9345 h 19.911626 l 15.289287,46.9345 H 96.590285 L 90.19012,157.36525 88.270069,149.4006 h -0.213338 l -1.848937,7.96465 -6.613504,26.95182 z"
         style="font-style:normal;font-variant:normal;font-weight:900;font-stretch:normal;font-family:'Work Sans';-inkscape-font-specification:'Work Sans Heavy';stroke-width:1.77783" />
      <path
         id="path143"
         style="font-style:normal;font-variant:normal;font-weight:900;font-stretch:normal;font-family:'Work Sans';-inkscape-font-specification:'Work Sans Heavy';stroke-width:1.77783"
         d="m 154.64179,137.38257 v 12.16026 h -14.64927 v 34.77424 H 123.4232 v -34.77424 h -14.72038 v -12.16026 z" />
      <path
         id="path145"
         style="font-style:normal;font-variant:normal;font-weight:900;font-stretch:normal;font-family:'Work Sans';-inkscape-font-specification:'Work Sans Heavy';stroke-width:1.77783"
         d="m 203.39305,137.38257 v 12.16026 h -14.64927 v 34.77424 h -16.56931 v -34.77424 h -14.72039 v -12.16026 z" />
      <path
         id="path147"
         style="font-style:normal;font-variant:normal;font-weight:900;font-stretch:normal;font-family:'Work Sans';-inkscape-font-specification:'Work Sans Heavy';stroke-width:1.77783"
         d="m 208.33873,184.31707 v -46.9345 h 38.9699 v 12.16026 h -22.40058 v 5.83127 h 18.06268 v 11.23584 h -18.06268 v 5.5468 h 23.25394 v 12.16033 z" />
      <path
         id="path247"
         d="m 271.05704,163.76542 10.95139,20.55165 h 17.99158 l -14.64927,-22.96949 z"
         style="font-style:normal;font-variant:normal;font-weight:900;font-stretch:normal;font-family:'Work Sans';-inkscape-font-specification:'Work Sans Heavy';stroke-width:1.77783" />
      <path
         d="m 252.9234,137.38251 v 46.93451 h 16.21346 v -15.57371 h 7.82278 l 1.63558,-0.85318 c 6.11571,0 10.76179,-1.30391 13.93816,-3.91139 3.22378,-2.60747 4.83536,-6.49479 4.83536,-11.66232 0,-4.50383 -1.6355,-8.10685 -4.9067,-10.80913 -3.27116,-2.74967 -7.96456,-4.12478 -14.08026,-4.12478 z m 16.21346,11.8049 h 6.40014 c 1.75412,0 3.05803,0.33156 3.91139,0.99529 0.90077,0.66372 1.35133,1.77794 1.35133,3.34243 0,1.61188 -0.45056,2.74951 -1.35133,3.41323 -0.85336,0.6163 -2.15727,0.92449 -3.91139,0.92449 h -6.40014 z"
         style="font-style:normal;font-variant:normal;font-weight:900;font-stretch:normal;font-family:'Work Sans';-inkscape-font-specification:'Work Sans Heavy';stroke-width:1.77783"
         id="path149" />
    </g>
  </g>
</svg>
