<?xml version="1.0" encoding="UTF-8" standalone="no"?>
<svg
   xmlns:dc="http://purl.org/dc/elements/1.1/"
   xmlns:cc="http://creativecommons.org/ns#"
   xmlns:rdf="http://www.w3.org/1999/02/22-rdf-syntax-ns#"
   xmlns:svg="http://www.w3.org/2000/svg"
   xmlns="http://www.w3.org/2000/svg"
   xmlns:sodipodi="http://sodipodi.sourceforge.net/DTD/sodipodi-0.dtd"
   xmlns:inkscape="http://www.inkscape.org/namespaces/inkscape"
   sodipodi:docname="branding_opt_idk.svg"
   inkscape:version="1.0 (4035a4f, 2020-05-01)"
   id="svg8"
   version="1.1"
   viewBox="0 0 29.757366 4.6265526"
   height="4.6265526mm"
   width="29.757366mm">
  <defs
     id="defs2" />
  <sodipodi:namedview
     fit-margin-bottom="0"
     fit-margin-right="0"
     fit-margin-left="0"
     fit-margin-top="0"
     inkscape:window-maximized="0"
     inkscape:window-y="23"
     inkscape:window-x="0"
     inkscape:window-height="1035"
     inkscape:window-width="1920"
     showgrid="false"
     inkscape:document-rotation="0"
     inkscape:current-layer="text12"
     inkscape:document-units="mm"
     inkscape:cy="8.0037309"
     inkscape:cx="53.461793"
     inkscape:zoom="10.820164"
     inkscape:pageshadow="2"
     inkscape:pageopacity="0.0"
     borderopacity="1.0"
     bordercolor="#666666"
     pagecolor="#ffffff"
     id="base" />
  <metadata
     id="metadata5">
    <rdf:RDF>
      <cc:Work
         rdf:about="">
        <dc:format>image/svg+xml</dc:format>
        <dc:type
           rdf:resource="http://purl.org/dc/dcmitype/StillImage" />
        <dc:title></dc:title>
      </cc:Work>
    </rdf:RDF>
  </metadata>
  <g
     id="layer1"
     inkscape:groupmode="layer"
     inkscape:label="Layer 1">
    <g
       style="font-style:normal;font-weight:normal;font-size:6.2958px;line-height:1;font-family:sans-serif;fill:#000000;fill-opacity:1;stroke:none;stroke-width:0.157395"
       id="text12"
       aria-label="OSKITONE
POLY555">
      <path
         sodipodi:nodetypes="cccccccccccccccccsccccccscccssscscssssscscssccccccccccccccccccccccccccccsccsccccscscccccsssccssscccsssscscssssscscss"
         d="M 29.757367,4.5650644 H 27.08903 V 0.07069924 h 2.668337 V 1.0451957 h -1.454059 v 0.7070478 h 1.346465 V 2.72674 h -1.346465 v 0.8484574 h 1.454059 z m -3.120041,0 H 25.044931 L 23.40335,1.3987196 h -0.02767 c 0.03894,0.4980076 0.05841,0.8781739 0.05841,1.140499 V 4.5650644 H 22.358149 V 0.07069924 h 1.586247 l 1.635432,3.12330716 h 0.01844 c -0.02869,-0.4529205 -0.04304,-0.8166915 -0.04304,-1.091313 V 0.07069924 h 1.082091 z M 21.995427,2.3117336 c 0,0.7562338 -0.185472,1.3310945 -0.556416,1.724582 -0.370944,0.3934875 -0.914039,0.5902313 -1.629284,0.5902313 -0.704999,0 -1.246044,-0.1977685 -1.623136,-0.5933054 -0.375043,-0.3955369 -0.562564,-0.9714223 -0.562564,-1.7276561 0,-0.7480362 0.186497,-1.31879805 0.55949,-1.71228555 C 18.55856,0.19776292 19.102679,-5.5455603e-6 19.815875,-5.5455603e-6 c 0.715245,0 1.257315,0.1957190455603 1.62621,0.5871571455603 0.368895,0.39143813 0.553342,0.9662988 0.553342,1.724582 z m -3.092566,0 c 0,0.8689516 0.302289,1.3034274 0.906866,1.3034274 0.307412,0 0.534897,-0.1055448 0.682455,-0.3166345 0.149607,-0.2110897 0.224411,-0.5400206 0.224411,-0.9867929 0,-0.4488217 -0.07583,-0.7798021 -0.227485,-0.9929412 -0.149607,-0.2151885 -0.374018,-0.32278268 -0.673233,-0.32278268 -0.608676,0 -0.913014,0.43857458 -0.913014,1.31572388 z M 16.377734,4.5650644 H 15.163456 V 1.0636404 H 14.065994 V 0.07069924 h 3.406127 V 1.0636404 h -1.094387 z m -3.982595,0 V 0.07069924 h 1.220426 V 4.5650644 Z m -0.488786,0 H 10.535295 L 9.6468736,2.8466307 9.2872016,3.0618192 V 4.5650644 H 8.0667754 V 0.07069924 H 9.2872016 V 2.0227662 c 0.06148,-0.1209154 0.18547,-0.3125356 0.371969,-0.5748607 L 10.602926,0.07069924 h 1.32802 L 10.513776,2.0842486 Z M 7.7202289,3.2001546 c 0,0.2787203 -0.070705,0.5266994 -0.2121143,0.7439373 C 7.366705,4.1592804 7.1627883,4.3273324 6.8963644,4.4482478 6.6299406,4.5671139 6.317405,4.6265469 5.9587575,4.6265469 5.659543,4.6265469 5.4084898,4.6060529 5.2055978,4.5650639 5.0027058,4.5220259 4.7916161,4.448247 4.5723288,4.3437272 V 3.261637 c 0.2315838,0.1188661 0.47239,0.2121144 0.7224185,0.2797451 0.2500285,0.065581 0.4795629,0.098372 0.6886031,0.098372 0.1803485,0 0.3125357,-0.030741 0.3965617,-0.092224 0.084026,-0.063532 0.1260389,-0.1444839 0.1260389,-0.2428556 0,-0.061483 -0.01742,-0.1147674 -0.05226,-0.1598543 C 6.4209003,3.0976839 6.3665909,3.0505474 6.2907626,3.0034109 6.2169837,2.9562744 6.0181905,2.8599519 5.6943831,2.7144435 5.4013168,2.5812316 5.1810048,2.4521185 5.033447,2.3271042 4.8879386,2.2020899 4.7793196,2.0586309 4.7075901,1.8967272 4.63791,1.7348235 4.60307,1.5432033 4.60307,1.3218666 4.60307,0.90788493 4.7537019,0.58510219 5.0549658,0.35351839 5.3562297,0.1219346 5.7702114,0.0061427 6.2969108,0.0061427 c 0.465217,0 0.9396564,0.10759424 1.4233181,0.32278272 L 7.3482603,1.2665324 C 6.9281304,1.0738875 6.5653841,0.97756499 6.2600214,0.97756499 c -0.1578049,0 -0.2725721,0.0276671 -0.3443016,0.0830013 -0.07173,0.055334 -0.1075943,0.1239894 -0.1075943,0.2059661 0,0.088125 0.045087,0.1670272 0.1352614,0.2367073 0.092224,0.06968 0.3402027,0.1967437 0.7439373,0.381191 0.3873393,0.1742002 0.6558125,0.3617216 0.8054198,0.5625642 0.1516566,0.1987932 0.2274849,0.4498464 0.2274849,0.7531597 z M 4.3714007,2.3117336 c 0,0.7562338 -0.185472,1.3310945 -0.5564159,1.724582 C 3.4440408,4.4298031 2.900946,4.6265469 2.1857005,4.6265469 1.480702,4.6265469 0.93965671,4.4287784 0.56256453,4.0332415 0.18752174,3.6377046 3.46452e-7,3.0618192 3.46452e-7,2.3055854 3.46452e-7,1.5575492 0.18649703,0.98678735 0.5594904,0.59329985 0.9345332,0.19776292 1.4786527,-5.5455603e-6 2.1918488,-5.5455603e-6 2.9070943,-5.5455603e-6 3.4491644,0.1957135 3.8180589,0.5871516 4.1869534,0.97858973 4.3714007,1.5534504 4.3714007,2.3117336 Z m -3.0925659,0 c 0,0.8689516 0.3022886,1.3034274 0.9068657,1.3034274 0.3074121,0 0.5348971,-0.1055448 0.6824549,-0.3166345 0.1496073,-0.2110897 0.2244109,-0.5400206 0.2244109,-0.9867929 0,-0.4488217 -0.075828,-0.7798021 -0.227485,-0.9929412 C 2.7154741,1.1036039 2.4910633,0.99600972 2.1918488,0.99600972 c -0.608676,0 -0.913014,0.43857458 -0.913014,1.31572388 z"
         style="font-style:normal;font-variant:normal;font-weight:normal;font-stretch:normal;font-size:6.2958px;font-family:'Open Sans';-inkscape-font-specification:'Open Sans';stroke-width:0.157395"
         id="path323" />
    </g>
  </g>
</svg>
