<?xml version="1.0" encoding="UTF-8" standalone="no"?>
<svg
   xmlns:dc="http://purl.org/dc/elements/1.1/"
   xmlns:cc="http://creativecommons.org/ns#"
   xmlns:rdf="http://www.w3.org/1999/02/22-rdf-syntax-ns#"
   xmlns:svg="http://www.w3.org/2000/svg"
   xmlns="http://www.w3.org/2000/svg"
   xmlns:sodipodi="http://sodipodi.sourceforge.net/DTD/sodipodi-0.dtd"
   xmlns:inkscape="http://www.inkscape.org/namespaces/inkscape"
   width="28mm"
   height="4.6000047mm"
   viewBox="0 0 28 4.6000047"
   version="1.1"
   id="svg8"
   inkscape:version="1.0 (4035a4f, 2020-05-01)"
   sodipodi:docname="branding.svg">
  <defs
     id="defs2" />
  <sodipodi:namedview
     id="base"
     pagecolor="#ffffff"
     bordercolor="#666666"
     borderopacity="1.0"
     inkscape:pageopacity="0.0"
     inkscape:pageshadow="2"
     inkscape:zoom="10.820164"
     inkscape:cx="59.099414"
     inkscape:cy="8.0037471"
     inkscape:document-units="mm"
     inkscape:current-layer="text3434"
     inkscape:document-rotation="0"
     showgrid="false"
     inkscape:window-width="1920"
     inkscape:window-height="1035"
     inkscape:window-x="0"
     inkscape:window-y="23"
     inkscape:window-maximized="0"
     fit-margin-top="0"
     fit-margin-left="0"
     fit-margin-right="0"
     fit-margin-bottom="0" />
  <metadata
     id="metadata5">
    <rdf:RDF>
      <cc:Work
         rdf:about="">
        <dc:format>image/svg+xml</dc:format>
        <dc:type
           rdf:resource="http://purl.org/dc/dcmitype/StillImage" />
        <dc:title></dc:title>
      </cc:Work>
    </rdf:RDF>
  </metadata>
  <g
     inkscape:label="Layer 1"
     inkscape:groupmode="layer"
     id="layer1">
    <g
       aria-label="OSKITONE POLY555"
       id="text12"
       style="font-style:normal;font-weight:normal;font-size:6.2958px;line-height:1;font-family:sans-serif;fill:#000000;fill-opacity:1;stroke:none;stroke-width:0.157395">
      <g
         style="font-style:normal;font-weight:normal;font-size:0.527067px;line-height:0%;font-family:sans-serif;letter-spacing:0px;word-spacing:0px;display:inline;fill:#000000;fill-opacity:1;stroke:none;stroke-width:0.0439223px;stroke-linecap:butt;stroke-linejoin:miter;stroke-opacity:1"
         id="text3434"
         transform="scale(0.99653587,1.0034762)"
         aria-label="OSKITONE">
        <path
           id="path349"
           style="letter-spacing:-0.53716px;stroke-width:0.0439223px"
           d="m 4.3312609,2.2905076 q 0,1.1239347 -0.5513067,1.7087463 -0.5513067,0.5848116 -1.6143236,0.5848116 -1.0477873,0 -1.60823174,-0.5878575 Q 3.4458935e-7,3.4083506 3.4458935e-7,2.2844159 3.4458935e-7,1.1726647 0.55435296,0.58785317 1.1117515,-4.2750034e-6 2.1717224,-4.2750034e-6 q 1.0630168,0 1.6112777,0.5817656550034 Q 4.3312609,1.163527 4.3312609,2.2905076 Z m -3.0641689,0 q 0,1.2914589 0.8985386,1.2914589 0.4568841,0 0.6761884,-0.313727 0.2223502,-0.3137271 0.2223502,-0.9777319 0,-0.6670506 -0.2253961,-0.9838236 -0.2223502,-0.31981878 -0.6670507,-0.31981878 -0.9046304,0 -0.9046304,1.30364238 z" />
        <path
           id="path351"
           style="letter-spacing:-0.494182px;stroke-width:0.0439223px"
           d="m 7.510091,3.1707709 q 0,0.4142415 -0.2101666,0.7371062 Q 7.0897577,4.2276959 6.6937916,4.4074036 6.2978254,4.5840655 5.764794,4.5840655 q -0.4447004,0 -0.7462439,-0.060918 Q 4.7170067,4.4591838 4.3910961,4.3038433 V 3.2316887 Q 4.735282,3.4083506 5.106881,3.508865 q 0.371599,0.097469 0.6822802,0.097469 0.2680386,0 0.3929202,-0.091377 0.1248817,-0.094423 0.1248817,-0.2406256 0,-0.091377 -0.05178,-0.1583864 Q 6.2064486,3.0458892 6.0937505,2.9758337 5.9840984,2.9057781 5.5028472,2.6895197 5.0672844,2.4915366 4.8479801,2.3057371 4.6317217,2.1199376 4.5251154,1.879312 4.421555,1.6386864 4.421555,1.3097299 q 0,-0.61527046 0.4477463,-0.95945642 0.4477464,-0.34418597 1.230541,-0.34418597 0.6914179,0 1.4102487,0.31981882 L 7.1415379,1.2549038 Q 6.5171297,0.96858986 6.0632916,0.96858986 q -0.2345338,0 -0.3411401,0.0822391 -0.1066062,0.082239 -0.1066062,0.2040748 0,0.1309735 0.1340193,0.2345338 Q 5.8866298,1.592998 6.4866708,1.8671284 7.0623447,2.1260294 7.2846949,2.424527 7.510091,2.7199786 7.510091,3.1707709 Z" />
        <path
           id="path353"
           style="letter-spacing:-0.229419px;stroke-width:0.0439223px"
           d="M 11.514694,4.5231476 H 10.156225 L 9.275962,2.8204931 8.9195925,3.0337057 V 4.5231476 H 7.7103727 V 0.07005128 H 8.9195925 V 2.0041937 Q 9.0109693,1.8244859 9.2881456,1.4346116 L 10.223235,0.07005128 h 1.315826 L 10.134904,2.0651115 Z" />
        <path
           id="path355"
           style="letter-spacing:-0.39507px;stroke-width:0.0439223px"
           d="M 11.769572,4.5231476 V 0.07005128 h 1.209219 V 4.5231476 Z" />
        <path
           id="path357"
           style="letter-spacing:-0.564189px;stroke-width:0.0439223px"
           d="M 15.507779,4.5231476 H 14.304651 V 1.0538749 H 13.217267 V 0.07005128 h 3.37485 V 1.0538749 h -1.084338 z" />
        <path
           id="path359"
           style="letter-spacing:-0.634195px;stroke-width:0.0439223px"
           d="m 20.837395,2.2905076 q 0,1.1239347 -0.551307,1.7087463 -0.551307,0.5848116 -1.614323,0.5848116 -1.047788,0 -1.608232,-0.5878575 -0.557399,-0.5878574 -0.557399,-1.7117921 0,-1.1117512 0.554353,-1.69656273 0.557399,-0.5878574450034 1.617369,-0.5878574450034 1.063017,0 1.611278,0.5817656550034 0.548261,0.58176562 0.548261,1.70874622 z m -3.064169,0 q 0,1.2914589 0.898539,1.2914589 0.456884,0 0.676188,-0.313727 0.22235,-0.3137271 0.22235,-0.9777319 0,-0.6670506 -0.225396,-0.9838236 -0.22235,-0.31981878 -0.667051,-0.31981878 -0.90463,0 -0.90463,1.30364238 z" />
        <path
           id="path361"
           style="letter-spacing:-0.756181px;stroke-width:0.0439223px"
           d="M 25.247199,4.5231476 H 23.669426 L 22.042919,1.3858773 h -0.02741 q 0.05787,0.7401521 0.05787,1.1300265 V 4.5231476 H 21.007315 V 0.07005128 h 1.571681 l 1.620415,3.09462782 h 0.01828 Q 24.175044,2.4915366 24.175044,2.0833869 V 0.07005128 h 1.072155 z" />
        <path
           id="path363"
           style="font-style:normal;font-variant:normal;font-weight:800;font-stretch:normal;font-size:6.23799px;line-height:1.25;font-family:'Open Sans';-inkscape-font-specification:'Open Sans Ultra-Bold';letter-spacing:-0.376357px;stroke-width:0.0439223px"
           d="M 28.097356,4.5231476 H 25.45352 V 0.07005128 h 2.643836 V 1.0355995 H 26.656648 V 1.736155 h 1.334101 v 0.9655483 h -1.334101 v 0.8406666 h 1.440708 z" />
      </g>
    </g>
  </g>
</svg>
